; Drill file
; Format: 2.4 (00.0000)
M48
INCH
T01C0.0236
T02C0.0256
T03C0.0283
T04C0.0315
T05C0.0354
T06C0.0394
T07C0.0472
T08C0.0591
T09C0.1181
%
G05
G90
T01
X004630Y-003120
X005620Y-003120
X005370Y-001000
X004380Y-001000
X004380Y000000
X005380Y000000
X005370Y001000
X004380Y001000
X004380Y002000
X005380Y002000
X007620Y002120
X007620Y001130
X009030Y001980
X010030Y001980
X011500Y001750
X012880Y001880
X013870Y001880
X015530Y003000
X017430Y003000
X019380Y002370
X019380Y001380
X020620Y001380
X020620Y002370
X022030Y001980
X023030Y001980
X024500Y001500
X024620Y002750
X026630Y002750
X027910Y001980
X028910Y001980
X030380Y002370
X030380Y001380
X030000Y-000250
X028880Y-002000
X027750Y-001750
X025750Y-001750
X024500Y-001500
X023120Y-002000
X023120Y-003000
X021750Y-003500
X021750Y-001500
X019380Y-003060
X018370Y-003060
X017430Y-001500
X015530Y-001500
X015380Y-003120
X014380Y-003120
X013250Y-002250
X013250Y-001250
X013250Y-000250
X011500Y-001250
X010250Y-002000
X010250Y-003000
X008750Y-003500
X008750Y-001500
X006250Y004250
X005250Y004250
X002500Y003250
X002500Y002250
X002370Y005120
X002370Y006120
X005250Y010250
X006250Y010250
X009880Y010250
X011880Y010250
X011370Y007380
X010250Y007750
X009000Y007620
X009000Y005620
X010250Y005750
X011370Y005370
X013630Y005120
X013620Y006120
X015530Y005250
X017430Y005250
X017880Y007130
X016880Y007130
X020000Y006250
X020000Y005250
X020000Y004250
X021880Y005620
X023370Y005750
X024620Y005370
X024620Y007380
X023380Y007750
X021880Y007620
X021000Y010500
X020000Y010500
X018750Y010250
X018750Y011250
X016750Y013500
X016750Y014500
X016750Y015750
X016750Y016750
X018000Y016750
X018000Y015750
X015500Y015000
X015500Y013500
X014500Y013500
X011880Y013250
X011880Y014250
X009880Y014250
X009880Y013250
X010540Y018040
X014880Y020250
X015500Y021250
X017000Y023000
X017000Y024000
X018000Y025000
X018710Y025700
X019430Y024960
X020500Y024000
X020500Y023000
X020750Y017750
X019750Y017750
X023500Y015750
X024500Y015750
X025000Y017500
X026880Y018120
X027750Y017000
X027750Y016000
X027170Y014500
X027170Y013500
X025920Y013500
X025920Y014500
X027250Y011750
X028250Y011750
X030620Y010000
X031630Y010000
X030500Y007380
X029250Y007750
X027880Y007620
X027880Y005620
X029250Y005750
X030500Y005370
X032500Y004750
X033880Y004630
X033880Y005630
X032500Y006750
X032120Y002500
X033120Y002500
X033120Y001500
X032120Y001500
X032130Y000500
X033120Y000500
X033120Y-000500
X032120Y-000500
X032120Y-003120
X033120Y-003120
X030000Y-003250
X028880Y-004000
X017430Y000750
X015530Y000750
X015500Y017000
X015500Y018000
X014880Y025130
X013250Y025500
X013250Y027500
X015000Y027120
X016000Y027120
X017250Y031000
X019250Y031000
X021000Y031000
X023000Y031000
X026000Y034380
X026000Y035380
X030000Y034630
X030000Y033620
X030000Y032000
X030000Y031000
X033120Y031500
X034130Y031500
X032880Y035620
X032880Y036620
X030290Y036590
X030290Y038160
X026000Y027500
X026000Y026500
X026880Y020130
X025000Y019500
X028750Y019000
X028750Y018000
X030750Y018000
X030750Y019000
X032080Y018110
X033080Y018110
X034380Y017620
X034380Y018630
X034750Y020000
X033750Y020000
X033620Y021380
X034620Y021380
X032420Y021880
X032420Y020880
X034170Y016000
X034170Y015000
X033420Y014250
X033420Y013250
X032250Y013000
X032250Y014000
X030870Y013630
X030870Y014630
X013000Y031000
X013500Y032500
X012500Y033500
X013500Y034500
X013500Y036250
X012250Y036250
X012250Y038250
X013500Y038250
X009880Y034130
X009880Y033120
X011000Y031000
X007130Y033120
X007130Y034130
X005500Y035250
X004250Y035250
X002750Y035000
X002750Y037000
X004250Y037250
X005500Y037250
X006750Y037250
X006750Y036250
X005370Y031380
X003380Y031380
X003000Y029380
X003000Y028370
X005750Y027370
X007380Y026880
X008370Y026870
X005750Y025380
X005370Y022750
X004120Y022750
X004120Y020750
X005370Y020750
X004250Y016370
X003250Y016370
X002370Y014500
X002370Y013500
T02
X008890Y000040
X009880Y-000520
X009880Y000620
X008920Y003350
X009910Y003940
X008920Y004500
X021920Y004500
X022910Y003940
X021920Y003350
X022880Y000620
X021890Y000040
X022880Y-000520
X027890Y000040
X028880Y-000520
X028880Y000620
X027920Y003350
X028910Y003940
X027920Y004500
X028400Y013640
X028960Y014630
X029540Y013640
X032050Y015480
X033040Y016060
X032050Y016630
X005250Y032850
X004260Y033420
X005250Y034000
T03
X010540Y016460
X018950Y015770
X018950Y014770
X018950Y013770
X018950Y012770
X021950Y012770
X021950Y013770
X021950Y014770
X021950Y015770
T04
X019130Y034620
X020130Y034620
X021120Y034620
T05
X004750Y-004750
X005750Y-004750
X005750Y005990
X007130Y005990
X004380Y005990
X004380Y008750
X007130Y008750
X007030Y011920
X004270Y011920
X004270Y014680
X005650Y014680
X007030Y014680
X007380Y018750
X003500Y019620
X003250Y023370
X005750Y028750
X005750Y029750
X007250Y029750
X007250Y028750
X013250Y028750
X013250Y029750
X014750Y029750
X014750Y028750
X026000Y031000
X026000Y032000
X027500Y032000
X027500Y031000
X027370Y034380
X027370Y035870
X027630Y038120
X026630Y038130
X031500Y034500
X031500Y033000
X034000Y033000
X034000Y034500
X034380Y027750
X033370Y027750
X022000Y018000
X022000Y017000
X023250Y011500
X024250Y011500
X025250Y011500
X032000Y-004750
X033000Y-004750
T06
X006510Y019980
X009510Y019980
X011510Y019980
X013510Y019980
X013510Y022980
X011510Y022980
X009510Y022980
X006510Y022980
X009380Y036500
X010380Y037500
X008380Y037500
X028250Y027250
X028250Y025250
X028250Y023250
X028250Y020250
X031250Y020250
X031250Y023250
X031250Y025250
X031250Y027250
T07
X022000Y025000
X024000Y025000
X023000Y029000
T08
X003770Y007400
X007770Y007390
X007640Y013270
X003640Y013290
T09
X002690Y010380
X033880Y010440
M30
