%FSLAX34Y34*%
%MOMM*%
%LNSOLDERMASK_BOTTOM*%
G71*
G01*
%ADD10C, 0.00*%
%ADD11C, 2.60*%
%ADD12C, 2.80*%
%ADD13C, 2.40*%
%ADD14C, 2.40*%
%ADD15C, 3.60*%
%ADD16C, 2.60*%
%ADD17C, 2.60*%
%ADD18C, 3.40*%
%ADD19C, 3.00*%
%ADD20C, 2.20*%
%ADD21C, 3.60*%
%ADD22C, 2.30*%
%ADD23C, 2.60*%
%ADD24C, 2.40*%
%ADD25C, 2.20*%
%ADD26C, 2.25*%
%ADD27C, 2.60*%
%ADD28C, 5.10*%
%LPD*%
G54D10*
X0Y1000000D02*
X928000Y1000000D01*
X928000Y-150000D01*
X0Y-150000D01*
X0Y1000000D01*
X815975Y63500D02*
G54D11*
D03*
X841375Y63500D02*
G54D11*
D03*
X841375Y38100D02*
G54D11*
D03*
X815975Y38100D02*
G54D11*
D03*
X815975Y12700D02*
G54D11*
D03*
X841375Y12700D02*
G54D11*
D03*
X841375Y-12700D02*
G54D11*
D03*
X815975Y-12700D02*
G54D11*
D03*
X111125Y50800D02*
G54D11*
D03*
X136525Y50800D02*
G54D11*
D03*
X136525Y25400D02*
G54D11*
D03*
X111125Y25400D02*
G54D11*
D03*
X111125Y0D02*
G54D11*
D03*
X136525Y0D02*
G54D11*
D03*
X136525Y-25400D02*
G54D11*
D03*
X111125Y-25400D02*
G54D11*
D03*
X165335Y507615D02*
G54D12*
D03*
X165335Y583815D02*
G54D12*
D03*
X241535Y507615D02*
G54D12*
D03*
X292335Y507615D02*
G54D12*
D03*
X343135Y507615D02*
G54D12*
D03*
X241535Y583815D02*
G54D12*
D03*
X292335Y583815D02*
G54D12*
D03*
X343135Y583815D02*
G54D12*
D03*
X793750Y514350D02*
G54D12*
D03*
X717550Y514350D02*
G54D12*
D03*
X793750Y590550D02*
G54D12*
D03*
X793750Y641350D02*
G54D12*
D03*
X793750Y692150D02*
G54D12*
D03*
X717550Y590550D02*
G54D12*
D03*
X717550Y641350D02*
G54D12*
D03*
X717550Y692150D02*
G54D12*
D03*
X457200Y635000D02*
G54D13*
D03*
X475300Y652700D02*
G54D13*
D03*
X493600Y634000D02*
G54D13*
D03*
X485775Y879475D02*
G54D14*
D03*
X511175Y879475D02*
G54D14*
D03*
X536575Y879475D02*
G54D14*
D03*
X342900Y825500D02*
G54D13*
D03*
X342900Y876300D02*
G54D13*
D03*
X317500Y850900D02*
G54D13*
D03*
X558800Y635000D02*
G54D15*
D03*
X609600Y635000D02*
G54D15*
D03*
X584200Y736600D02*
G54D15*
D03*
X698500Y812800D02*
G54D16*
D03*
X660400Y812800D02*
G54D16*
D03*
X660400Y787400D02*
G54D16*
D03*
X698500Y787400D02*
G54D16*
D03*
X374650Y755650D02*
G54D16*
D03*
X336550Y755650D02*
G54D16*
D03*
X336550Y730250D02*
G54D16*
D03*
X374650Y730250D02*
G54D16*
D03*
X184150Y755650D02*
G54D16*
D03*
X146050Y755650D02*
G54D16*
D03*
X146050Y730250D02*
G54D16*
D03*
X184150Y730250D02*
G54D16*
D03*
X800100Y838200D02*
G54D16*
D03*
X800100Y876300D02*
G54D16*
D03*
X695325Y873125D02*
G54D16*
D03*
X695325Y911225D02*
G54D16*
D03*
X520700Y609600D02*
G54D13*
D03*
X520700Y584200D02*
G54D13*
D03*
X431800Y609600D02*
G54D13*
D03*
X431800Y584200D02*
G54D13*
D03*
X660400Y698500D02*
G54D13*
D03*
X660400Y673100D02*
G54D13*
D03*
X136525Y577850D02*
G54D13*
D03*
X136525Y527050D02*
G54D13*
D03*
X730250Y482600D02*
G54D13*
D03*
X781050Y482600D02*
G54D13*
D03*
X104775Y527050D02*
G54D13*
D03*
X104775Y577850D02*
G54D13*
D03*
X730250Y457200D02*
G54D13*
D03*
X781050Y457200D02*
G54D13*
D03*
X133350Y863600D02*
G54D17*
D03*
X108246Y848814D02*
G54D17*
D03*
X133350Y834426D02*
G54D17*
D03*
X250825Y15875D02*
G54D17*
D03*
X225721Y1090D02*
G54D17*
D03*
X250825Y-13299D02*
G54D17*
D03*
X581025Y15875D02*
G54D17*
D03*
X555921Y1090D02*
G54D17*
D03*
X581025Y-13299D02*
G54D17*
D03*
X226623Y85181D02*
G54D17*
D03*
X251727Y99966D02*
G54D17*
D03*
X226623Y114354D02*
G54D17*
D03*
X556823Y85181D02*
G54D17*
D03*
X581927Y99966D02*
G54D17*
D03*
X556823Y114355D02*
G54D17*
D03*
X733425Y15875D02*
G54D17*
D03*
X708321Y1090D02*
G54D17*
D03*
X733425Y-13299D02*
G54D17*
D03*
X709223Y85180D02*
G54D17*
D03*
X734327Y99966D02*
G54D17*
D03*
X709223Y114354D02*
G54D17*
D03*
X342900Y971550D02*
G54D11*
D03*
X342900Y920750D02*
G54D11*
D03*
X311150Y971550D02*
G54D11*
D03*
X311150Y920750D02*
G54D11*
D03*
X330200Y787400D02*
G54D11*
D03*
X279400Y787400D02*
G54D11*
D03*
X336550Y698500D02*
G54D11*
D03*
X336550Y647700D02*
G54D11*
D03*
X146050Y695325D02*
G54D11*
D03*
X146050Y644525D02*
G54D11*
D03*
X69850Y939800D02*
G54D11*
D03*
X69850Y889000D02*
G54D11*
D03*
X107950Y946150D02*
G54D11*
D03*
X107950Y895350D02*
G54D11*
D03*
X139700Y946150D02*
G54D11*
D03*
X139700Y895350D02*
G54D11*
D03*
X171450Y946150D02*
G54D13*
D03*
X171450Y920750D02*
G54D13*
D03*
X136525Y796925D02*
G54D11*
D03*
X85725Y796925D02*
G54D11*
D03*
X263525Y952500D02*
G54D18*
D03*
X212725Y952500D02*
G54D18*
D03*
X238125Y927100D02*
G54D18*
D03*
X180975Y866775D02*
G54D13*
D03*
X180975Y841375D02*
G54D13*
D03*
X250825Y866775D02*
G54D13*
D03*
X250825Y841375D02*
G54D13*
D03*
X406400Y688975D02*
G54D13*
D03*
X381000Y688975D02*
G54D13*
D03*
X212725Y682625D02*
G54D13*
D03*
X187325Y682625D02*
G54D13*
D03*
X438150Y787400D02*
G54D13*
D03*
X488950Y787400D02*
G54D13*
D03*
X584200Y787400D02*
G54D11*
D03*
X533400Y787400D02*
G54D11*
D03*
X863600Y838200D02*
G54D16*
D03*
X863600Y876300D02*
G54D16*
D03*
X835025Y930275D02*
G54D13*
D03*
X835025Y904875D02*
G54D13*
D03*
X762000Y879475D02*
G54D13*
D03*
X762000Y854075D02*
G54D13*
D03*
X762000Y812800D02*
G54D13*
D03*
X762000Y787400D02*
G54D13*
D03*
X866775Y800100D02*
G54D13*
D03*
X841375Y800100D02*
G54D13*
D03*
X660400Y898525D02*
G54D13*
D03*
X660400Y873125D02*
G54D13*
D03*
X769300Y969325D02*
G54D13*
D03*
X769300Y929325D02*
G54D13*
D03*
G36*
X688675Y981375D02*
X714675Y981375D01*
X714675Y955375D01*
X688675Y955375D01*
X688675Y981375D01*
G37*
G36*
X663280Y981380D02*
X689280Y981380D01*
X689280Y955380D01*
X663280Y955380D01*
X663280Y981380D01*
G37*
X108559Y372952D02*
G54D19*
D03*
X143558Y372952D02*
G54D19*
D03*
X178558Y372952D02*
G54D19*
D03*
X108574Y302825D02*
G54D19*
D03*
X178575Y302825D02*
G54D19*
D03*
G36*
X81952Y355481D02*
X102952Y355481D01*
X102952Y319481D01*
X81952Y319481D01*
X81952Y355481D01*
G37*
G36*
X183561Y355184D02*
X204561Y355184D01*
X204561Y319184D01*
X183561Y319184D01*
X183561Y355184D01*
G37*
X181141Y152122D02*
G54D19*
D03*
X146142Y152122D02*
G54D19*
D03*
X111142Y152122D02*
G54D19*
D03*
X181126Y222250D02*
G54D19*
D03*
X111125Y222250D02*
G54D19*
D03*
G36*
X207748Y169594D02*
X186748Y169594D01*
X186748Y205594D01*
X207748Y205594D01*
X207748Y169594D01*
G37*
G36*
X106139Y169891D02*
X85139Y169891D01*
X85139Y205891D01*
X106139Y205891D01*
X106139Y169891D01*
G37*
X60325Y368300D02*
G54D13*
D03*
X60325Y342900D02*
G54D13*
D03*
X60325Y155575D02*
G54D13*
D03*
X60325Y130175D02*
G54D13*
D03*
X107950Y415925D02*
G54D13*
D03*
X82550Y415925D02*
G54D13*
D03*
X158750Y107950D02*
G54D13*
D03*
X133350Y107950D02*
G54D13*
D03*
X158750Y260350D02*
G54D13*
D03*
X133350Y260350D02*
G54D13*
D03*
X442800Y76200D02*
G54D11*
D03*
X394400Y76200D02*
G54D11*
D03*
X442800Y19050D02*
G54D11*
D03*
X394400Y19050D02*
G54D11*
D03*
X442800Y-38100D02*
G54D11*
D03*
X394400Y-38100D02*
G54D11*
D03*
X222250Y-38100D02*
G54D11*
D03*
X222250Y-88900D02*
G54D11*
D03*
X552450Y-38100D02*
G54D11*
D03*
X552450Y-88900D02*
G54D11*
D03*
X288925Y187325D02*
G54D11*
D03*
X288925Y136525D02*
G54D11*
D03*
X228600Y193675D02*
G54D11*
D03*
X228600Y142875D02*
G54D11*
D03*
X254853Y50324D02*
G54D13*
D03*
X229453Y50324D02*
G54D13*
D03*
X585053Y50324D02*
G54D13*
D03*
X559653Y50324D02*
G54D13*
D03*
X555625Y193675D02*
G54D11*
D03*
X555625Y142875D02*
G54D11*
D03*
X625475Y187325D02*
G54D11*
D03*
X625475Y136525D02*
G54D11*
D03*
X193675Y53975D02*
G54D13*
D03*
X193675Y28575D02*
G54D13*
D03*
X260350Y-50800D02*
G54D13*
D03*
X260350Y-76200D02*
G54D13*
D03*
X734278Y50324D02*
G54D13*
D03*
X708878Y50324D02*
G54D13*
D03*
X708025Y193675D02*
G54D11*
D03*
X708025Y142875D02*
G54D11*
D03*
X774700Y187325D02*
G54D11*
D03*
X774700Y136525D02*
G54D11*
D03*
X587375Y-50800D02*
G54D13*
D03*
X587375Y-76200D02*
G54D13*
D03*
X260350Y196850D02*
G54D13*
D03*
X260350Y146050D02*
G54D13*
D03*
X593725Y196850D02*
G54D13*
D03*
X593725Y146050D02*
G54D13*
D03*
X742950Y196850D02*
G54D13*
D03*
X742950Y146050D02*
G54D13*
D03*
X676275Y69850D02*
G54D13*
D03*
X625475Y69850D02*
G54D13*
D03*
X76200Y746125D02*
G54D13*
D03*
X76200Y720725D02*
G54D13*
D03*
G36*
X174325Y489250D02*
X200325Y489250D01*
X200325Y463250D01*
X174325Y463250D01*
X174325Y489250D01*
G37*
G36*
X364825Y527350D02*
X390825Y527350D01*
X390825Y501350D01*
X364825Y501350D01*
X364825Y527350D01*
G37*
G36*
X364825Y651175D02*
X390825Y651175D01*
X390825Y625175D01*
X364825Y625175D01*
X364825Y651175D01*
G37*
G36*
X69550Y606725D02*
X95550Y606725D01*
X95550Y580725D01*
X69550Y580725D01*
X69550Y606725D01*
G37*
X88900Y498470D02*
G54D16*
D03*
X343130Y583820D02*
G54D16*
D03*
X793750Y514350D02*
G54D16*
D03*
X781050Y482600D02*
G54D11*
D03*
X781050Y457200D02*
G54D11*
D03*
X222250Y-88900D02*
G54D11*
D03*
X552450Y-88900D02*
G54D11*
D03*
X654050Y-44450D02*
G54D11*
D03*
X250825Y260350D02*
G54D20*
D03*
X250825Y336550D02*
G54D20*
D03*
X250825Y361950D02*
G54D20*
D03*
X301625Y361950D02*
G54D20*
D03*
X301625Y336550D02*
G54D20*
D03*
X301625Y260350D02*
G54D20*
D03*
X475300Y652700D02*
G54D11*
D03*
X406400Y688970D02*
G54D11*
D03*
X431800Y584200D02*
G54D11*
D03*
X212720Y682620D02*
G54D11*
D03*
X60320Y342900D02*
G54D11*
D03*
X60320Y155570D02*
G54D11*
D03*
X69850Y939800D02*
G54D11*
D03*
X107950Y946150D02*
G54D11*
D03*
X171450Y946150D02*
G54D11*
D03*
X311150Y971550D02*
G54D11*
D03*
X342900Y971550D02*
G54D11*
D03*
X660400Y898530D02*
G54D11*
D03*
X769300Y969330D02*
G54D11*
D03*
X835030Y930270D02*
G54D11*
D03*
X762000Y879480D02*
G54D11*
D03*
X841370Y800100D02*
G54D11*
D03*
X660400Y673100D02*
G54D11*
D03*
X520700Y584200D02*
G54D11*
D03*
X609600Y635000D02*
G54D21*
D03*
X212720Y952500D02*
G54D21*
D03*
X346075Y155575D02*
G54D13*
D03*
X346075Y130175D02*
G54D13*
D03*
X492125Y60325D02*
G54D13*
D03*
X492125Y34925D02*
G54D13*
D03*
X492125Y-77788D02*
G54D13*
D03*
X466725Y-77788D02*
G54D13*
D03*
G36*
X546025Y312896D02*
X546025Y335896D01*
X569025Y335896D01*
X569025Y312896D01*
X546025Y312896D01*
G37*
X557525Y349796D02*
G54D22*
D03*
X557525Y375196D02*
G54D22*
D03*
X557525Y400596D02*
G54D22*
D03*
X481325Y400596D02*
G54D22*
D03*
X481325Y375196D02*
G54D22*
D03*
X481325Y349796D02*
G54D22*
D03*
X481325Y324396D02*
G54D22*
D03*
X750443Y346532D02*
G54D17*
D03*
X735658Y371636D02*
G54D17*
D03*
X721269Y346531D02*
G54D17*
D03*
X813998Y393156D02*
G54D17*
D03*
X839102Y407941D02*
G54D17*
D03*
X813998Y422330D02*
G54D17*
D03*
X267650Y418150D02*
G54D13*
D03*
X267650Y458150D02*
G54D13*
D03*
X267650Y418150D02*
G54D22*
D03*
X511180Y879480D02*
G54D22*
D03*
X292100Y44450D02*
G54D11*
D03*
X292100Y-31750D02*
G54D11*
D03*
X622300Y38100D02*
G54D11*
D03*
X622300Y-38100D02*
G54D11*
D03*
X742950Y196850D02*
G54D11*
D03*
X593730Y196850D02*
G54D11*
D03*
X260350Y196850D02*
G54D11*
D03*
X733420Y-101600D02*
G54D11*
D03*
X704850Y-44450D02*
G54D11*
D03*
X654050Y-44450D02*
G54D11*
D03*
X762000Y-6350D02*
G54D11*
D03*
X762000Y-82550D02*
G54D11*
D03*
X733425Y-50800D02*
G54D13*
D03*
X733425Y-101600D02*
G54D13*
D03*
X250830Y361950D02*
G54D11*
D03*
X393700Y539750D02*
G54D11*
D03*
X393700Y457200D02*
G54D11*
D03*
X508000Y266700D02*
G54D13*
D03*
X533400Y266700D02*
G54D13*
D03*
X476250Y285750D02*
G54D13*
D03*
X476250Y260350D02*
G54D13*
D03*
X425450Y368300D02*
G54D13*
D03*
X425450Y342900D02*
G54D13*
D03*
X557520Y349800D02*
G54D11*
D03*
X557520Y400600D02*
G54D11*
D03*
X393700Y381000D02*
G54D13*
D03*
X393700Y431800D02*
G54D13*
D03*
X368300Y342900D02*
G54D13*
D03*
X393700Y342900D02*
G54D13*
D03*
X368300Y342900D02*
G54D11*
D03*
X457200Y425450D02*
G54D13*
D03*
X457200Y400050D02*
G54D13*
D03*
X425450Y425450D02*
G54D13*
D03*
X425450Y400050D02*
G54D13*
D03*
X425450Y400050D02*
G54D11*
D03*
X527050Y450850D02*
G54D13*
D03*
X501650Y450850D02*
G54D13*
D03*
G36*
X545800Y470200D02*
X571800Y470200D01*
X571800Y444200D01*
X545800Y444200D01*
X545800Y470200D01*
G37*
G36*
X545800Y444800D02*
X571800Y444800D01*
X571800Y418800D01*
X545800Y418800D01*
X545800Y444800D01*
G37*
G36*
X577550Y305100D02*
X603550Y305100D01*
X603550Y279100D01*
X577550Y279100D01*
X577550Y305100D01*
G37*
G36*
X602950Y305100D02*
X628950Y305100D01*
X628950Y279100D01*
X602950Y279100D01*
X602950Y305100D01*
G37*
G36*
X628350Y305100D02*
X654350Y305100D01*
X654350Y279100D01*
X628350Y279100D01*
X628350Y305100D01*
G37*
X690050Y368412D02*
G54D13*
D03*
X690050Y343012D02*
G54D13*
D03*
X750440Y346530D02*
G54D11*
D03*
X692150Y298450D02*
G54D13*
D03*
X717550Y298450D02*
G54D13*
D03*
X658300Y368412D02*
G54D13*
D03*
X658300Y343012D02*
G54D13*
D03*
X596900Y400050D02*
G54D13*
D03*
X622300Y400050D02*
G54D13*
D03*
X596900Y400050D02*
G54D11*
D03*
X635000Y444500D02*
G54D11*
D03*
X635000Y495300D02*
G54D11*
D03*
X784064Y346236D02*
G54D13*
D03*
X784064Y371636D02*
G54D13*
D03*
X819150Y330200D02*
G54D13*
D03*
X819150Y355600D02*
G54D13*
D03*
X111130Y-25400D02*
G54D11*
D03*
X111130Y0D02*
G54D11*
D03*
X136530Y0D02*
G54D11*
D03*
X136530Y50800D02*
G54D11*
D03*
X260350Y-76200D02*
G54D11*
D03*
X587370Y-76200D02*
G54D11*
D03*
X815975Y-12700D02*
G54D11*
D03*
X841370Y63500D02*
G54D11*
D03*
X841370Y12700D02*
G54D11*
D03*
X815980Y12700D02*
G54D11*
D03*
X442800Y133350D02*
G54D11*
D03*
X394400Y133350D02*
G54D11*
D03*
X771525Y60325D02*
G54D13*
D03*
X771525Y34925D02*
G54D13*
D03*
X142875Y-79375D02*
G54D13*
D03*
X117475Y-79375D02*
G54D13*
D03*
G36*
X107650Y-107650D02*
X133650Y-107650D01*
X133650Y-133650D01*
X107650Y-133650D01*
X107650Y-107650D01*
G37*
G36*
X133050Y-107650D02*
X159050Y-107650D01*
X159050Y-133650D01*
X133050Y-133650D01*
X133050Y-107650D01*
G37*
X841375Y-79375D02*
G54D13*
D03*
X815975Y-79375D02*
G54D13*
D03*
G36*
X825200Y-107650D02*
X851200Y-107650D01*
X851200Y-133650D01*
X825200Y-133650D01*
X825200Y-107650D01*
G37*
G36*
X799800Y-107650D02*
X825800Y-107650D01*
X825800Y-133650D01*
X799800Y-133650D01*
X799800Y-107650D01*
G37*
X860425Y142875D02*
G54D13*
D03*
X860425Y117475D02*
G54D13*
D03*
X803275Y254000D02*
G54D13*
D03*
X777875Y254000D02*
G54D13*
D03*
X825500Y120650D02*
G54D11*
D03*
X825500Y171450D02*
G54D11*
D03*
X860430Y142880D02*
G54D11*
D03*
X777875Y254000D02*
G54D11*
D03*
X508000Y133350D02*
G54D11*
D03*
X508000Y107950D02*
G54D11*
D03*
X508000Y158750D02*
G54D11*
D03*
X492130Y60320D02*
G54D11*
D03*
X523875Y60325D02*
G54D13*
D03*
X523875Y34925D02*
G54D13*
D03*
X346070Y155570D02*
G54D11*
D03*
X492125Y-77788D02*
G54D11*
D03*
X336550Y-6350D02*
G54D11*
D03*
X336550Y-31750D02*
G54D11*
D03*
X336550Y-57150D02*
G54D11*
D03*
X352425Y47625D02*
G54D13*
D03*
X327025Y47625D02*
G54D13*
D03*
X704850Y406400D02*
G54D13*
D03*
X704850Y431800D02*
G54D13*
D03*
X704850Y406400D02*
G54D13*
D03*
X840127Y460011D02*
G54D13*
D03*
X814727Y460011D02*
G54D13*
D03*
X848800Y362062D02*
G54D13*
D03*
X848800Y336662D02*
G54D13*
D03*
X867850Y381110D02*
G54D13*
D03*
X848800Y336660D02*
G54D13*
D03*
X873125Y473075D02*
G54D13*
D03*
X873125Y447675D02*
G54D13*
D03*
G36*
X869250Y496000D02*
X845250Y496000D01*
X845250Y520000D01*
X869250Y520000D01*
X869250Y496000D01*
G37*
G36*
X894650Y496000D02*
X870650Y496000D01*
X870650Y520000D01*
X894650Y520000D01*
X894650Y496000D01*
G37*
X879314Y543086D02*
G54D13*
D03*
X853914Y543086D02*
G54D13*
D03*
X879314Y543086D02*
G54D13*
D03*
X823400Y555737D02*
G54D13*
D03*
X823400Y530336D02*
G54D13*
D03*
X867850Y406512D02*
G54D13*
D03*
X867850Y381112D02*
G54D13*
D03*
X95640Y187890D02*
G54D23*
D03*
X197250Y187590D02*
G54D24*
D03*
X92450Y337480D02*
G54D25*
D03*
X194060Y337180D02*
G54D26*
D03*
X63500Y57150D02*
G54D13*
D03*
X63500Y82550D02*
G54D13*
D03*
G36*
X834725Y717850D02*
X860725Y717850D01*
X860725Y691850D01*
X834725Y691850D01*
X834725Y717850D01*
G37*
G36*
X860130Y717850D02*
X886130Y717850D01*
X886130Y691850D01*
X860130Y691850D01*
X860130Y717850D01*
G37*
X250830Y336550D02*
G54D27*
D03*
X682625Y460375D02*
G54D11*
D03*
X682625Y511175D02*
G54D11*
D03*
X860425Y265118D02*
G54D28*
D03*
X68258Y263530D02*
G54D28*
D03*
X390525Y-79375D02*
G54D13*
D03*
X365125Y-79375D02*
G54D13*
D03*
X454025Y180975D02*
G54D13*
D03*
X428625Y180975D02*
G54D13*
D03*
M02*
